<?xml version="1.0" encoding="utf-8"?>
<!-- Generator: Adobe Illustrator 16.0.0, SVG Export Plug-In . SVG Version: 6.00 Build 0)  -->
<!DOCTYPE svg PUBLIC "-//W3C//DTD SVG 1.1//EN" "http://www.w3.org/Graphics/SVG/1.1/DTD/svg11.dtd">
<svg version="1.1" id="Capa_1" xmlns="http://www.w3.org/2000/svg" xmlns:xlink="http://www.w3.org/1999/xlink" x="0px" y="0px"
	 width="512px" height="512px" viewBox="0 0 512 512" enable-background="new 0 0 512 512" xml:space="preserve">
<g>
	<g>
		<path fill="#747474" d="M454.433,68.925l8.348,23.473c0.357,1.005,1.065,1.801,1.958,2.204l20.854,9.396
			c2.946,1.328,2.946,6.022,0,7.349l-20.854,9.396c-0.893,0.402-1.6,1.199-1.958,2.204l-8.348,23.473
			c-1.179,3.316-5.351,3.316-6.529,0l-8.348-23.473c-0.357-1.005-1.065-1.801-1.958-2.204l-20.854-9.396
			c-2.945-1.327-2.945-6.022,0-7.349l20.854-9.396c0.893-0.402,1.6-1.199,1.958-2.204l8.348-23.473
			C449.082,65.609,453.253,65.609,454.433,68.925z"/>
		<path fill="#747474" d="M142.415,1.845l6.191,17.412c0.266,0.745,0.79,1.336,1.452,1.635l15.47,6.97
			c2.187,0.985,2.187,4.467,0,5.451l-15.47,6.97c-0.662,0.298-1.187,0.889-1.452,1.635l-6.191,17.412c-0.875,2.46-3.97,2.46-4.845,0
			l-6.191-17.412c-0.266-0.745-0.79-1.336-1.452-1.635l-15.47-6.97c-2.186-0.985-2.186-4.467,0-5.451l15.47-6.97
			c0.662-0.298,1.187-0.889,1.452-1.635l6.191-17.412C138.446-0.615,141.54-0.615,142.415,1.845z"/>
		<path fill="#747474" d="M395.26,38.202c0,6.774-5.491,12.265-12.266,12.265c-6.773,0-12.266-5.492-12.266-12.265
			c0-6.774,5.491-12.266,12.266-12.266S395.26,31.427,395.26,38.202z"/>
		<path fill="#747474" d="M60.433,106.525c0,10.006-8.112,18.118-18.118,18.118s-18.118-8.112-18.118-18.118
			c0-10.006,8.112-18.118,18.118-18.118C52.321,88.408,60.433,96.519,60.433,106.525z"/>
	</g>
	<g>
		<path fill="#747474" d="M247.513,512c-114.218,0-207.14-92.923-207.14-207.141c0-114.216,92.922-207.14,207.14-207.14
			s207.14,92.923,207.14,207.14C454.652,419.077,361.73,512,247.513,512L247.513,512z M247.513,117.832
			c-103.128,0-187.027,83.9-187.027,187.027c0,103.127,83.9,187.027,187.027,187.027s187.026-83.899,187.026-187.026
			C434.539,201.733,350.64,117.832,247.513,117.832z"/>
		<path fill="#747474" d="M200.923,258.489c-5.553,0-10.057-4.502-10.057-10.056c0-15.434-12.556-27.99-27.988-27.99
			c-15.435,0-27.99,12.556-27.99,27.99c0,5.554-4.503,10.056-10.056,10.056c-5.554,0-10.057-4.502-10.057-10.056
			c0-26.524,21.579-48.102,48.104-48.102c26.522,0,48.102,21.579,48.102,48.102C210.979,253.987,206.476,258.489,200.923,258.489z"
			/>
		<path fill="#747474" d="M370.195,258.489c-5.553,0-10.056-4.502-10.056-10.056c0-15.434-12.557-27.99-27.99-27.99
			c-15.433,0-27.989,12.556-27.989,27.99c0,5.554-4.503,10.056-10.056,10.056s-10.056-4.502-10.056-10.056
			c0-26.524,21.579-48.102,48.102-48.102c26.524,0,48.103,21.579,48.103,48.102C380.25,253.987,375.748,258.489,370.195,258.489
			L370.195,258.489z"/>
		<path fill="#747474" d="M381.347,298.535H113.679c-5.553,0-10.056,4.502-10.056,10.056c0,79.341,64.549,143.891,143.89,143.891
			s143.89-64.55,143.89-143.891C391.403,303.038,386.9,298.535,381.347,298.535z M171.12,405.907
			c13.725-21.999,43.329-36.345,76.393-36.345c33.062,0,62.667,14.346,76.393,36.345c-21.054,16.563-47.588,26.462-76.393,26.462
			S192.174,422.471,171.12,405.907z M338.818,392.064c-18.123-25.931-52.979-42.614-91.306-42.614
			c-38.328,0-73.188,16.682-91.308,42.612c-18.03-19.705-29.789-45.24-32.066-73.414h246.747
			C368.609,346.823,356.85,372.359,338.818,392.064z"/>
	</g>
</g>
</svg>
