<?xml version="1.0" encoding="utf-8"?>
<!-- Generator: Adobe Illustrator 16.0.0, SVG Export Plug-In . SVG Version: 6.00 Build 0)  -->
<!DOCTYPE svg PUBLIC "-//W3C//DTD SVG 1.1//EN" "http://www.w3.org/Graphics/SVG/1.1/DTD/svg11.dtd">
<svg version="1.1" id="Capa_1" focusable="false" xmlns="http://www.w3.org/2000/svg" xmlns:xlink="http://www.w3.org/1999/xlink"
	 x="0px" y="0px" width="2000px" height="2000px" viewBox="0 0 2000 2000" enable-background="new 0 0 2000 2000"
	 xml:space="preserve">
<linearGradient id="SVGID_1_" gradientUnits="userSpaceOnUse" x1="424.8362" y1="1968.8115" x2="1478.1244" y2="144.4625">
	<stop  offset="0" style="stop-color:#0095FF"/>
	<stop  offset="0.3717" style="stop-color:#834FFF"/>
	<stop  offset="0.7225" style="stop-color:#FF46AE"/>
	<stop  offset="1" style="stop-color:#FF6B64"/>
</linearGradient>
<path fill="url(#SVGID_1_)" d="M1002.151,31.25c-546.99,0-970.9,399.77-970.9,939.73c0,282.42,116.05,526.48,304.96,695.07
	c32.62,29.34,25.9,46.33,31.45,227.47c1.47,42.94,37.49,76.561,80.44,75.08c9.81-0.33,19.47-2.52,28.46-6.449
	c206.68-91.021,209.34-98.2,244.38-88.67c598.791,164.8,1247.81-218.4,1247.81-902.5C1968.75,431.02,1549.18,31.25,1002.151,31.25z
	 M1585.12,754.41l-285.16,451.45c-43.18,68.08-133.38,88.26-201.46,45.069c-3.12-1.97-6.16-4.069-9.13-6.279L862.5,1074.84
	c-20.83-15.62-49.48-15.62-70.31,0l-306.14,232.19c-40.86,30.979-94.37-17.971-66.83-61.21l285.16-451.44
	c43.15-68.08,133.32-88.28,201.39-45.13c3.14,2,6.21,4.11,9.19,6.34l226.8,169.76c20.83,15.63,49.48,15.63,70.311,0l306.29-231.95
	C1559.14,662.23,1612.66,711.13,1585.12,754.41z"/>
<path fill="#FFFFFF" d="M1585.12,754.41l-285.16,451.45c-43.18,68.08-133.38,88.26-201.46,45.069c-3.12-1.97-6.16-4.069-9.13-6.279
	L862.5,1074.84c-20.83-15.62-49.48-15.62-70.31,0l-306.14,232.19c-40.86,30.979-94.37-17.971-66.83-61.21l285.16-451.44
	c43.15-68.08,133.32-88.28,201.39-45.13c3.14,2,6.21,4.11,9.19,6.34l226.8,169.76c20.83,15.63,49.48,15.63,70.311,0l306.29-231.95
	C1559.14,662.23,1612.66,711.13,1585.12,754.41z"/>
</svg>
