<?xml version="1.0" encoding="utf-8"?>
<!-- Generator: Adobe Illustrator 16.0.0, SVG Export Plug-In . SVG Version: 6.00 Build 0)  -->
<!DOCTYPE svg PUBLIC "-//W3C//DTD SVG 1.1//EN" "http://www.w3.org/Graphics/SVG/1.1/DTD/svg11.dtd">
<svg version="1.1" xmlns="http://www.w3.org/2000/svg" xmlns:xlink="http://www.w3.org/1999/xlink" x="0px" y="0px" width="628px"
	 height="396px" viewBox="0 0 628 396" enable-background="new 0 0 628 396" xml:space="preserve">
<g id="Capa_1">
</g>
<g id="Capa_3">
	<g>
		<g>
			<path fill="#E30E20" d="M135.452,298.021c-29.743,0-52.121-6.957-67.157-20.863c-15.014-13.889-23.231-31.712-24.615-53.407
				h47.961c0.574,9.996,4.891,18.084,12.95,24.191c8.061,6.125,19.324,9.182,33.808,9.182c12.771,0,22.645-2.229,29.606-6.671
				c6.955-4.444,10.44-10.448,10.44-17.943c0-8.336-4.24-14.544-12.724-18.577c-8.495-4.025-18.792-7.321-30.882-9.849
				c-12.096-2.55-24.343-5.113-36.712-7.719c-12.39-2.604-22.815-8.629-31.298-18.079c-8.469-9.442-12.723-22.411-12.723-38.802
				c0-18.899,7.862-34.991,23.593-48.193c15.697-13.202,36.5-19.828,62.363-19.828c14.736,0,27.726,2.32,39.004,6.883
				c11.258,4.588,20.026,10.643,26.285,18.155c6.247,7.511,10.978,15.151,14.189,22.948c3.19,7.79,5.081,15.712,5.632,23.8H177.6
				c-0.832-8.642-4.522-16.01-11.061-22.159c-6.545-6.071-15.771-9.14-27.739-9.14c-11.959,0-21.145,2.198-27.534,6.613
				c-6.402,4.447-9.601,10.544-9.601,18.358c0,7.226,4.302,12.75,12.901,16.484c8.605,3.77,18.97,6.974,31.06,9.674
				c12.103,2.659,24.344,5.384,36.725,8.125c12.37,2.729,22.753,9.127,31.073,19.161c8.388,10.05,12.574,23.43,12.574,40.064
				c0,19.463-7.862,35.613-23.552,48.389C186.722,291.635,164.377,298.021,135.452,298.021z"/>
			<g>
				<path fill="#212165" d="M564.993,92.343c-13.624-15.699-33.097-23.579-58.409-23.579c-30.603,0-55.068,11.387-73.423,34.214
					c-13.351-22.827-35.048-34.214-65.079-34.214c-16.16,0-29.618,3.188-40.464,9.582c-10.829,6.385-18.84,14.432-24.111,24.085
					c-0.021,0.041-0.075,0.082-0.089,0.124V73.754h-45.91h-3.717l0.062,44.239v178.499c0,16.42-7.522,24.619-22.543,24.619
					c-4.445,0-13.152-0.141-16.488-0.439v42.545l23.163,1.285c12.125,0,22.175-2.088,30.95-5.454
					c5.441-2.088,10.187-4.866,14.368-8.213c0.306-0.243,0.613-0.463,0.927-0.735c11.115-9.285,22.925-26.495,22.938-58.804V164.318
					c0-16.402,4.379-29.349,13.133-38.797c8.769-9.438,20.506-14.213,35.236-14.213c27.261,0,40.899,16.407,40.899,49.246v129.759
					h49.653v-124.36c0-17.21,4.377-30.655,13.146-40.254c8.756-9.574,20.66-14.391,35.675-14.391
					c27.248,0,40.885,16.407,40.885,49.246v129.759h49.653V154.293C585.448,128.726,578.603,108.054,564.993,92.343z"/>
			</g>
		</g>
	</g>
</g>
<g id="Capa_2">
</g>
</svg>
