<?xml version="1.0" encoding="utf-8"?>
<!-- Generator: Adobe Illustrator 16.0.0, SVG Export Plug-In . SVG Version: 6.00 Build 0)  -->
<!DOCTYPE svg PUBLIC "-//W3C//DTD SVG 1.1//EN" "http://www.w3.org/Graphics/SVG/1.1/DTD/svg11.dtd">
<svg version="1.1" xmlns="http://www.w3.org/2000/svg" xmlns:xlink="http://www.w3.org/1999/xlink" x="0px" y="0px" width="628px"
	 height="344px" viewBox="0 0 628 344" enable-background="new 0 0 628 344" xml:space="preserve">
<g id="Capa_1">
</g>
<g id="Capa_3">
	<g>
		<g>
			<path fill="#E30E20" d="M107.681,264.641c-34.354,0-60.202-8.035-77.57-24.098C12.77,224.5,3.277,203.914,1.68,178.854h55.398
				c0.663,11.546,5.649,20.888,14.958,27.942c9.31,7.074,22.32,10.605,39.049,10.605c14.751,0,26.156-2.574,34.196-7.705
				c8.033-5.134,12.059-12.068,12.059-20.726c0-9.628-4.898-16.799-14.696-21.458c-9.813-4.649-21.706-8.456-35.67-11.375
				c-13.972-2.945-28.117-5.906-42.404-8.916c-14.311-3.007-26.353-9.967-36.151-20.882c-9.782-10.906-14.696-25.886-14.696-44.818
				c0-21.829,9.081-40.416,27.251-55.665c18.13-15.249,42.159-22.902,72.032-22.902c17.021,0,32.025,2.68,45.052,7.949
				c13.003,5.3,23.131,12.293,30.361,20.971c7.215,8.675,12.68,17.5,16.389,26.506c3.685,8.998,5.869,18.148,6.505,27.49h-54.948
				c-0.961-9.981-5.223-18.492-12.776-25.595c-7.56-7.013-18.217-10.557-32.04-10.557c-13.813,0-24.423,2.539-31.803,7.639
				c-7.395,5.137-11.089,12.179-11.089,21.204c0,8.347,4.969,14.728,14.901,19.041c9.939,4.354,21.912,8.055,35.875,11.174
				c13.979,3.071,28.118,6.218,42.419,9.385c14.288,3.152,26.281,10.542,35.891,22.132c9.688,11.608,14.524,27.063,14.524,46.276
				c0,22.48-9.081,41.135-27.204,55.891C166.9,257.264,141.091,264.641,107.681,264.641z"/>
			<g>
				<path fill="#212165" d="M603.822,27.072C588.085,8.938,565.593-0.163,536.356-0.163c-35.348,0-63.606,13.152-84.808,39.519
					c-15.42-26.366-40.482-39.519-75.169-39.519c-18.666,0-34.21,3.683-46.738,11.067c-12.507,7.375-21.761,16.67-27.85,27.819
					c-0.024,0.048-0.086,0.095-0.104,0.144V5.601h-53.028h-4.293l0.072,51.099v206.175c0,18.966-8.688,28.437-26.039,28.437
					c-5.134,0-15.191-0.162-19.044-0.508v49.142l26.754,1.484c14.005,0,25.614-2.411,35.749-6.3
					c6.285-2.411,11.767-5.621,16.595-9.486c0.354-0.28,0.708-0.534,1.071-0.85c12.838-10.725,26.479-30.603,26.494-67.921V110.207
					c0-18.945,5.059-33.898,15.169-44.813c10.128-10.901,23.686-16.416,40.7-16.416c31.488,0,47.24,18.951,47.24,56.882v149.877
					h57.352V112.096c0-19.879,5.056-35.408,15.185-46.495c10.114-11.06,23.863-16.622,41.207-16.622
					c31.473,0,47.224,18.951,47.224,56.882v149.877h57.352V98.627C627.448,69.096,619.542,45.219,603.822,27.072z"/>
			</g>
		</g>
	</g>
</g>
<g id="Capa_2">
</g>
</svg>
