<svg id="Capa_1" enable-background="new 0 0 512 512" height="512" viewBox="0 0 512 512" width="512" xmlns="http://www.w3.org/2000/svg"><g><path d="m124.89 387.11-95.46 95.46c29.246 29.246 76.827 29.239 106.066 0l42.426-42.426z" fill="#ffbe8f"/><path d="m71.857 334.077-42.427 42.427c-29.239 29.239-29.246 76.82 0 106.066 17.543 17.543 55.614 8.026 84.853-21.213.035-.036-42.426-127.28-42.426-127.28z" fill="#ffe4ad"/><path d="m177.923 440.143c-17.31 17.31-41.055 24.367-63.604 21.178l178.051-305.33 84.853 84.853z" fill="#adf2f5"/><path d="m356.009 219.631-42.426 42.426-188.69 125.051 31.82 31.82-42.394 42.394c-15.542-2.192-30.533-9.249-42.462-21.178-29.239-29.239-29.239-76.827 0-106.066l199.3-199.3z" fill="#e0feff"/><path d="m271.156 262.057-178.083 156.87c17.574 17.574 46.066 17.574 63.64 0l156.87-156.87z" fill="#ff3a33"/><path d="m135.499 397.714 135.657-135.657h-84.853l-93.23 93.23c-17.574 17.574-17.574 46.066 0 63.64 5.858 5.858 24.853-3.639 42.426-21.213z" fill="#fe5e49"/><path d="m345.403 166.598-10.607 74.246h42.426z" fill="#46d3db"/><path d="m345.403 166.598-74.247-31.82v42.426l63.64 63.64 21.213-21.213z" fill="#80e7ed"/><path d="m430.255 187.811-84.853-84.853 10.607 116.673 21.213 21.213z" fill="#01b1bc"/><path d="m280.099 113.188h120v75h-120z" fill="#46d3db" transform="matrix(.707 .707 -.707 .707 206.165 -196.351)"/><path d="m483.288 113.565h-84.852l-.001 84.852 21.214 21.214 84.852-84.853z" fill="#46d3db"/><path d="m327.829 27.958h120v150h-120z" fill="#80e7ed" transform="matrix(.707 -.707 .707 .707 40.79 304.392)"/><path d="m509.803 129.476-127.278-127.279c-1.407-1.407-3.315-2.197-5.304-2.197s-3.896.79-5.304 2.197l-84.853 84.853c-1.406 1.406-2.196 3.314-2.196 5.303s.79 3.897 2.196 5.303l5.304 5.304-168.591 168.591c-2.929 2.929-2.929 7.678 0 10.606 1.465 1.464 3.385 2.197 5.304 2.197s3.839-.732 5.304-2.197l129.271-129.271v24.319c0 1.989.79 3.897 2.196 5.303l63.64 63.64c1.407 1.407 3.314 2.197 5.304 2.197h24.319l-186.495 186.493c-12.726 12.727-29.677 19.735-47.729 19.735s-35.003-7.009-47.729-19.735c-26.314-26.314-26.318-69.125-.014-95.445l36.022-36.023c2.929-2.929 2.929-7.678 0-10.606-2.931-2.93-7.679-2.928-10.607 0l-36.008 36.009c-.014.014-42.426 42.426-42.426 42.426-15.56 15.56-24.129 36.277-24.129 58.336-.001 22.06 8.568 42.777 24.128 58.336s36.278 24.129 58.337 24.129 42.776-8.569 58.336-24.128l268.239-268.24 5.303 5.303c1.465 1.464 3.385 2.197 5.304 2.197s3.839-.732 5.304-2.197l84.853-84.853c2.928-2.928 2.928-7.677-.001-10.606zm-379.609 347.789c-12.726 12.726-29.677 19.735-47.73 19.735-18.052 0-35.003-7.008-47.729-19.735-12.726-12.726-19.735-29.677-19.735-47.73 0-18.052 7.009-35.003 19.735-47.729l8.946-8.946c-4.451 25.581 3.158 52.871 22.872 72.585 15.561 15.56 36.278 24.129 58.337 24.129 4.823 0 9.576-.434 14.231-1.237zm148.461-303.166v-21.213l80.46 80.459h-21.214zm98.566 56.139-95.459-95.458 21.213-21.213 95.459 95.458zm42.426-21.213-116.673-116.672 74.247-74.247 116.672 116.673z"/><path d="m87.768 424.232c9.916 9.916 23.1 15.377 37.123 15.377s27.207-5.461 37.124-15.377l156.87-156.87c2.145-2.145 2.786-5.371 1.625-8.173-1.16-2.803-3.896-4.63-6.929-4.63h-127.279c-1.989 0-3.896.79-5.304 2.197l-93.23 93.23c-20.47 20.469-20.47 53.776 0 74.246zm101.641-154.673h106.066l-144.067 144.066c-7.083 7.083-16.5 10.983-26.517 10.983s-19.434-3.9-26.516-10.983c-14.622-14.622-14.622-38.412 0-53.033z"/></g></svg>