<svg height="512" viewBox="0 0 64 64" width="512" xmlns="http://www.w3.org/2000/svg"><g id="Blue"><path d="m3 3h58v42h-58z" fill="#cdeef6"/><path d="m7 7h50v34h-50z" fill="#7cb8eb"/><path d="m8 49h48v8h-48z" fill="#cdeef6"/><path d="m26 45h26v4h-26z" fill="#cdeef6"/><path d="m10 57h44v4h-44z" fill="#7cb8eb"/><path d="m11 52h2v2h-2z" fill="#4f83d1"/><path d="m15 52h2v2h-2z" fill="#4f83d1"/><path d="m47 19a7 7 0 1 0 -13.706 2h-.294s-3.4.758-3.694 2.5a3.133 3.133 0 0 0 -1.306-2.5c-3-2-9 3-9 3s0-3-2-3-2 2-2 5c0 5 8 1 8 1-6 5 0 9 7 9s11-10 11-10 6 0 6-7z" fill="#fff"/><g fill="#4f83d1"><path d="m28.9 29.447-1.79-.893c.674-1.354 2.182-5.493.34-6.722-1.944-1.3-6.4 1.764-7.8 2.937l-1.28-1.538c.672-.56 6.675-5.412 10.2-3.063 3.677 2.461.463 9.002.33 9.279z"/><path d="m33.553 28.9c-3.808-1.905-5.477-3.636-5.254-5.451.292-2.372 3.786-3.265 4.484-3.421l.435 1.953c-1.145.257-2.849 1.016-2.934 1.713-.016.129-.032 1.319 4.163 3.416z"/><path d="m10 36h10v2h-10z"/><path d="m10 32h7v2h-7z"/><path d="m10 10h12v2h-12z"/><path d="m10 14h4v2h-4z"/><path d="m16 14h4v2h-4z"/><path d="m41 36h13v2h-13z"/><path d="m49 32h5v2h-5z"/><path d="m43 32h4v2h-4z"/><path d="m52 28h2v2h-2z"/><path d="m48 28h2v2h-2z"/><path d="m29.832 22.555-1.664-1.11c.064-.1 1.662-2.678-.1-7.074-2.275-5.687 1.224-8.1 1.374-8.2l1.11 1.664-.552-.835.566.824c-.094.068-2.287 1.68-.637 5.805 2.171 5.426-.003 8.785-.097 8.926z"/><path d="m2 46h23v2h-18v10h2v4h46v-4h2v-10h-4v-2h9v-44h-60zm51 14h-42v-2h42zm2-10v6h-46v-6zm-28-2v-2h24v2zm-23-44h56v40h-56z"/><path d="m58 6h-52v36h52zm-27.669 17.988c0-.128 0-.255-.012-.382.2-.661 1.688-1.335 2.8-1.606h.178a1 1 0 0 0 .958-1.286 6 6 0 1 1 11.745-1.714c0 5.782-4.493 6-5 6a1 1 0 0 0 -.929.629c-.037.094-3.821 9.371-10.071 9.371-4.067 0-7.654-1.436-8.344-3.34-.514-1.422.8-2.9 1.984-3.891a1 1 0 0 0 -1.087-1.664c-1.825.911-4.91 1.873-6.049 1.167-.138-.084-.5-.311-.5-1.272 0-3.364.159-4 1-4 .944 0 1 1.983 1 2a1 1 0 0 0 1.64.769c1.407-1.173 5.861-4.232 7.805-2.937a2.124 2.124 0 0 1 .854 1.683 11.313 11.313 0 0 1 -1.194 5.039l1.79.893a16.515 16.515 0 0 0 1.044-2.82 17.724 17.724 0 0 0 3.61 2.273l.894-1.79c-3.201-1.605-3.947-2.665-4.116-3.122zm25.669 16.012h-48v-32h19.939c-.665 1.321-1.058 3.394.132 6.371a9.218 9.218 0 0 1 .577 5.875c-.033-.024-.059-.055-.093-.078-2.655-1.771-6.722.554-8.849 2.044a2.84 2.84 0 0 0 -2.706-2.212c-3 0-3 2.914-3 6a3.237 3.237 0 0 0 1.453 2.975c1.2.743 2.935.6 4.485.216a4.1 4.1 0 0 0 -.163 3.15c.994 2.743 5.198 4.659 10.225 4.659 6.656 0 10.678-7.84 11.684-10.062 1.762-.253 6.316-1.527 6.316-7.938a8 8 0 0 0 -16 0 7.885 7.885 0 0 0 .093 1.207 9.774 9.774 0 0 0 -1.541.622 11.122 11.122 0 0 0 -.623-7.2c-1.371-3.429-.092-5.116.435-5.629h25.636z"/><path d="m11 52h2v2h-2z"/><path d="m15 52h2v2h-2z"/><path d="m10 36h10v2h-10z"/><path d="m10 32h7v2h-7z"/><path d="m10 10h12v2h-12z"/><path d="m10 14h4v2h-4z"/><path d="m16 14h4v2h-4z"/><path d="m41 36h13v2h-13z"/><path d="m49 32h5v2h-5z"/><path d="m43 32h4v2h-4z"/><path d="m52 28h2v2h-2z"/><path d="m48 28h2v2h-2z"/></g></g></svg>