<?xml version="1.0" encoding="utf-8"?>
<!-- Generator: Adobe Illustrator 16.0.0, SVG Export Plug-In . SVG Version: 6.00 Build 0)  -->
<!DOCTYPE svg PUBLIC "-//W3C//DTD SVG 1.1//EN" "http://www.w3.org/Graphics/SVG/1.1/DTD/svg11.dtd">
<svg version="1.1" xmlns="http://www.w3.org/2000/svg" xmlns:xlink="http://www.w3.org/1999/xlink" x="0px" y="0px"
	 width="1169.157px" height="845.831px" viewBox="0 0 1169.157 845.831" enable-background="new 0 0 1169.157 845.831"
	 xml:space="preserve">
<g id="Capa_1">
</g>
<g id="Capa_3">
	<g>
		<g>
			<path fill="#E30E20" d="M216.631,151.265c-1.863-3.26-23.792-31.174-34.449-40.422c-0.592-0.612-1.029-1.047-1.139-1.129
				c-0.033-0.018-0.033-0.03-0.081-0.067c0-0.017-0.008-0.017-0.008-0.017c-2.87-2.533-5.802-4.461-8.734-5.889
				c-1.453-0.777-2.898-1.433-4.263-1.847l0.062,0.124c-23.715-7.839-46.775,14.568-46.775,14.568
				c-10.168,9.284-18.377,21.725-23.92,34.475c-10.841,25.023-13.705,54.301-8.843,81.21c2.114,11.661,8.85,28.407,9.149,29.045
				c20.142,44.326,65.787,62.87,64.499,62.435V257.73c-4.965-2.409-10.214-8.658-13.413-13.268
				c-8.441-12.191-12.982-24.259-10.842-41.948c1.16-9.616,3.88-21.973,16.481-32.69c6.771-5.769,14.182-6.096,22.917-4.364
				c8.735,1.747,16.951,5.541,25.788,6.576c5.673,0.695,12.465-0.207,15.308-5.168C221.089,162.104,219.352,156.026,216.631,151.265
				z"/>
			<path fill="#FFFFFF" d="M315.159,689.221c0,0.125,0,0.203-0.039,0.323v-0.639C315.12,689.001,315.159,689.138,315.159,689.221z"
				/>
			<path fill="#FFFFFF" d="M315.12,223.571v465.973c-0.512,6.331-15.28,11.47-33.392,11.47c-16.134,0-29.579-4.021-32.778-9.383
				c-0.164-0.323-0.328-0.666-0.423-1.007h-0.026c-0.137-0.422-0.218-0.939-0.218-1.403V223.571H315.12z"/>
			<path fill="#E30E20" d="M248.283,296.938v2.211c-4.118,1.565-8.245,3.056-12.396,4.525c-2.292,0.834-4.584,1.665-6.875,2.439
				h-0.042l-0.047-0.05v-15.942l0.047-0.082C235.804,293.762,245.902,296.35,248.283,296.938z"/>
			<path fill="#FFFFFF" d="M228.971,689.221c0,6.477-14.974,11.793-33.439,11.793c-9.211,0-17.57-1.321-23.633-3.486
				c-6.033-2.116-9.771-5.048-9.771-8.307h-0.041V223.571h66.836v465.334C228.924,689.001,228.971,689.138,228.971,689.221z"/>
			<path fill="#212165" d="M248.283,450.24c-0.048,0.079-0.089,0.079-0.13,0.107c-6.321,3.694-12.777,7.226-19.229,10.692v-14.933
				C234.903,448.26,244.846,449.854,248.283,450.24z"/>
			<path fill="#FFFFFF" d="M151.894,137.615c0,0,2.317,1.499,14.106,2.684c0,0,6.574,1.681,7.659,1.925c0,0,5.742,1.786,6.887-0.777
				c0,0,0.654-2.439-3.363-6.941c0,0-2.979-4.063-4.172-5.635c0,0-5.81-9.804-18.078-4.308c0,0-8.374,3.122-8.427,7.434
				C146.506,131.996,146.391,136.415,151.894,137.615z"/>
			<path fill="#212165" d="M179.618,620.813c-3.294,0-5.973,2.659-5.973,5.947c0,3.284,2.679,5.942,5.973,5.942
				c3.28,0,5.959-2.658,5.959-5.942C185.577,623.473,182.898,620.813,179.618,620.813z M179.618,630.418
				c-2.025,0-3.669-1.641-3.669-3.657s1.644-3.668,3.669-3.668c2.011,0,3.654,1.651,3.654,3.668S181.629,630.418,179.618,630.418z"
				/>
			<path fill="#212165" d="M191.735,555.067c0,2.799,2.284,5.047,5.061,5.047c2.787,0,5.052-2.248,5.052-5.047
				c0-2.783-2.266-5.062-5.052-5.062C194.019,550.006,191.735,552.284,191.735,555.067z"/>
			<path fill="#212165" d="M187.037,586.299c-4.404,0-7.984,3.57-7.984,7.963c0,4.419,3.58,7.992,7.984,7.992
				c4.397,0,7.984-3.573,7.984-7.992C195.021,589.869,191.435,586.299,187.037,586.299z"/>
			<path fill="#212165" d="M203.537,643.139c-2.781,0-5.044,2.29-5.044,5.072c0,2.783,2.263,5.031,5.044,5.031
				c2.797,0,5.054-2.248,5.054-5.031C208.591,645.429,206.334,643.139,203.537,643.139z"/>
			<path fill="#212165" d="M212.184,625.519c-2.789,0-5.073,2.266-5.073,5.049c0,2.782,2.284,5.06,5.073,5.06
				s5.061-2.277,5.061-5.06C217.244,627.784,214.973,625.519,212.184,625.519z"/>
			<path fill="#212165" d="M211.366,574.008c-3.286,0-5.965,2.676-5.965,5.976c0,3.284,2.679,5.947,5.965,5.947
				c3.3,0,5.973-2.663,5.973-5.947C217.339,576.684,214.666,574.008,211.366,574.008z M211.366,583.652
				c-2.025,0-3.661-1.664-3.661-3.669c0-2.017,1.636-3.668,3.661-3.668s3.669,1.651,3.669,3.668
				C215.035,581.988,213.391,583.652,211.366,583.652z"/>
			<path fill="#212165" d="M190.528,421.667c3.307,0,5.974-2.658,5.974-5.946s-2.667-5.96-5.974-5.96
				c-3.286,0-5.959,2.672-5.959,5.96S187.242,421.667,190.528,421.667z M190.528,412.052c2.031,0,3.675,1.652,3.675,3.669
				c0,2.003-1.645,3.668-3.675,3.668c-2.011,0-3.648-1.665-3.648-3.668C186.879,413.704,188.517,412.052,190.528,412.052z"/>
			<path fill="#212165" d="M208.469,452.501c2.447,0,4.547-1.76,4.969-4.187c0.041-0.343,0.083-0.601,0.083-0.857
				c0-2.783-2.271-5.048-5.052-5.048c-2.135,0-4.052,1.35-4.767,3.396c-0.193,0.575-0.294,1.117-0.294,1.651
				C203.409,450.24,205.687,452.501,208.469,452.501z"/>
			<path fill="#212165" d="M209.54,401.881c2.788,0,5.072-2.235,5.072-5.035c0-2.783-2.284-5.044-5.072-5.044
				c-2.777,0-5.055,2.261-5.055,5.044C204.485,399.646,206.763,401.881,209.54,401.881z"/>
			<path fill="#212165" d="M184.917,475.509c4.758,0,8.638-3.889,8.638-8.663c0-4.745-3.88-8.617-8.638-8.617
				c-4.767,0-8.64,3.872-8.64,8.617C176.277,471.62,180.15,475.509,184.917,475.509z M184.917,460.493
				c3.484,0,6.333,2.85,6.333,6.353c0,3.521-2.849,6.368-6.333,6.368c-3.506,0-6.348-2.848-6.348-6.368
				C178.569,463.343,181.411,460.493,184.917,460.493z"/>
			<path fill="#212165" d="M182.244,443.2c2.004,0,3.812-1.172,4.615-3.015c0.273-0.625,0.437-1.333,0.437-2.017
				c0-2.782-2.263-5.061-5.052-5.061c-2.012,0-3.833,1.172-4.638,3.044c-0.286,0.625-0.422,1.31-0.422,2.017
				C177.183,440.938,179.455,443.2,182.244,443.2z"/>
			<g>
				<path fill="#212165" d="M287.702,564.438c0.013-0.273-0.068-0.518-0.252-0.725c-0.184-0.174-0.422-0.286-0.681-0.286
					l-3.526-0.203l0.19-3.412c0.327-0.024,0.594-0.124,0.832-0.256c0.756-0.382,1.33-1.053,1.603-1.882
					c0.265-0.835,0.184-1.705-0.22-2.468c-0.375-0.766-1.049-1.342-1.862-1.615c-0.838-0.269-1.71-0.198-2.474,0.195
					c-1.582,0.832-2.224,2.779-1.413,4.36c0.375,0.754,1.05,1.326,1.897,1.583l-0.219,3.424l-3.934-0.19c0,0-0.013,0-0.033,0
					c-0.247,0-0.484,0.083-0.669,0.261c-0.199,0.174-0.307,0.423-0.321,0.679c-0.006,0.262,0.089,0.521,0.267,0.713
					c0.176,0.203,0.408,0.314,0.675,0.314l3.899,0.199l-0.348,5.826l-0.026,0.149l-2.469,3.044
					c-0.285,0.352-0.238,0.898,0.143,1.208c0.143,0.113,0.342,0.183,0.532,0.183c0.13,0,0.259-0.028,0.369-0.083
					c0.137-0.069,0.238-0.149,0.294-0.231l1.847-2.294l1.617,2.211c0.224,0.356,0.667,0.397,1.029,0.215l0.122-0.041
					c0.178-0.149,0.3-0.323,0.342-0.53c0.027-0.214-0.021-0.423-0.151-0.625l-2.031-2.77l0.396-6.204l3.56,0.175
					c0.157,0,0.321-0.039,0.491-0.121C287.482,565.08,287.688,564.766,287.702,564.438z"/>
				<path fill="#212165" d="M298.844,569.726c-0.826-0.215-1.706-0.049-2.441,0.415c-0.743,0.447-1.255,1.159-1.454,2.013
					c-0.19,0.836-0.06,1.706,0.404,2.443c0.137,0.231,0.333,0.438,0.565,0.629l-1.582,3.027l-3.11-1.665
					c-0.224-0.137-0.491-0.19-0.723-0.095c-0.273,0.082-0.476,0.248-0.606,0.477c-0.164,0.285-0.164,0.682,0.027,0.997
					c0.089,0.124,0.211,0.273,0.368,0.355l3.131,1.674l-2.872,5.541l-3.176,1.309c-0.416,0.174-0.595,0.638-0.396,1.089l0.04,0.12
					c0.232,0.344,0.648,0.505,1.01,0.331l2.522-1.064l0.404,2.862c0.012,0.165,0.06,0.272,0.122,0.356
					c0.164,0.256,0.437,0.438,0.735,0.438c0.036,0,0.077,0,0.11-0.028c0.47-0.054,0.797-0.505,0.737-0.981l-0.546-3.901l2.776-5.267
					l3.429,1.854c0.232,0.1,0.512,0.149,0.737,0.071c0.273-0.071,0.464-0.245,0.586-0.477c0.273-0.451,0.095-1.052-0.381-1.35
					l-3.478-1.856l1.603-3.039c0.845,0.216,1.718,0.078,2.435-0.373c0.723-0.464,1.24-1.168,1.445-2.017
					c0.191-0.832,0.054-1.719-0.395-2.439C300.398,570.439,299.688,569.917,298.844,569.726z"/>
				<path fill="#212165" d="M301.829,535.418c-0.164-0.819-0.627-1.545-1.323-1.991c-0.688-0.465-1.52-0.671-2.326-0.465
					c-0.797,0.166-1.486,0.629-1.963,1.309c-0.464,0.695-0.633,1.528-0.47,2.359c0.164,0.792,0.633,1.459,1.323,1.923L296,541.65
					l-3.559-1.2c-0.252-0.096-0.499-0.067-0.717,0.04c-0.226,0.107-0.403,0.315-0.472,0.56c-0.066,0.231-0.06,0.492,0.035,0.707
					c0.116,0.221,0.306,0.411,0.545,0.49l3.546,1.175l-1.882,5.376l-3.083,2.152c-0.185,0.133-0.3,0.34-0.34,0.547
					c-0.027,0.232,0.012,0.436,0.143,0.597c0.17,0.231,0.422,0.372,0.702,0.372c0.048,0,0.095-0.016,0.143-0.016
					c0.143-0.025,0.247-0.066,0.306-0.149l2.278-1.599l0.915,2.428c0.116,0.302,0.423,0.504,0.723,0.504
					c0.081-0.008,0.224-0.008,0.224-0.024l0.083-0.018c0.41-0.16,0.627-0.583,0.484-1.005l-1.153-3.068l1.965-5.592l3.218,1.103
					c0.185,0.041,0.348,0.041,0.484,0c0.348-0.05,0.613-0.299,0.708-0.613c0.171-0.505-0.096-1.036-0.592-1.214l-3.185-1.076
					l1.077-3.043c0.288,0.041,0.538,0,0.805-0.038c0.803-0.153,1.507-0.625,1.971-1.296
					C301.829,537.053,302.001,536.222,301.829,535.418z"/>
				<path fill="#212165" d="M271.533,589.081c0.267,0,0.526-0.141,0.675-0.339c0.063-0.083,0.116-0.194,0.131-0.314l0.553-2.741
					l2.331,1.143c0.348,0.19,0.779,0.041,1.017-0.315l0.054-0.065c0.083-0.208,0.089-0.439,0.035-0.642
					c-0.089-0.191-0.226-0.328-0.396-0.423l-2.94-1.404l-2.454-5.425l3.069-1.433c0.164-0.07,0.292-0.206,0.375-0.331
					c0.197-0.272,0.224-0.625,0.075-0.969c-0.101-0.202-0.294-0.365-0.532-0.465c-0.226-0.091-0.484-0.065-0.716,0.03l-3.048,1.42
					l-1.342-2.932c0.203-0.179,0.408-0.356,0.571-0.571c0.99-1.409,0.648-3.358-0.749-4.353c-1.406-0.94-3.333-0.625-4.323,0.773
					c-0.99,1.421-0.642,3.33,0.764,4.34c0.661,0.436,1.479,0.589,2.29,0.477l1.358,2.974l-3.396,1.581
					c-0.491,0.233-0.689,0.791-0.458,1.281c0.11,0.206,0.307,0.38,0.545,0.479c0.226,0.067,0.479,0.067,0.704-0.042l3.375-1.569
					l2.352,5.155l-0.737,3.682c-0.095,0.465,0.192,0.874,0.648,0.97C271.425,589.081,271.473,589.081,271.533,589.081z"/>
				<path fill="#212165" d="M265.315,552.665c0.083,0,0.185-0.025,0.279-0.025l3.56-1.093l1.561,5.482l-1.261,3.536
					c-0.158,0.423,0.068,0.887,0.511,1.062c0.102,0.028,0.184,0.057,0.28,0.057c0.226,0,0.43-0.099,0.58-0.26
					c0.083-0.083,0.164-0.203,0.199-0.315l0.94-2.604l2.126,1.475c0.315,0.166,0.764,0.166,1.038-0.138
					c0.021-0.028,0.033-0.053,0.068-0.095c0.137-0.189,0.19-0.409,0.137-0.63c-0.042-0.189-0.157-0.363-0.321-0.476l-2.7-1.843
					l-1.636-5.698l3.251-0.981c0.164-0.053,0.315-0.137,0.41-0.244c0.246-0.273,0.327-0.604,0.226-0.928
					c-0.143-0.521-0.69-0.737-1.187-0.654l-3.205,0.978l-0.901-3.122c0.232-0.121,0.449-0.273,0.642-0.464
					c1.172-1.268,1.139-3.23-0.125-4.402c-0.571-0.56-1.323-0.831-2.126-0.831c-0.015,0-0.062,0-0.083,0
					c-0.83,0-1.608,0.338-2.174,0.939c-0.573,0.616-0.874,1.391-0.838,2.199c0.006,0.844,0.36,1.623,0.967,2.177
					c0.547,0.564,1.29,0.833,2.114,0.833c0.036,0,0.068,0,0.083,0l0.893,3.135l-3.572,1.081c-0.52,0.161-0.799,0.666-0.656,1.172
					l0.014,0.024C264.531,552.425,264.908,552.665,265.315,552.665z"/>
				<path fill="#212165" d="M278.306,595.492c-4.126,0-7.447,3.325-7.447,7.445c0,4.116,3.321,7.458,7.447,7.458
					c4.119,0,7.439-3.342,7.439-7.458C285.745,598.817,282.424,595.492,278.306,595.492z"/>
			</g>
			<path fill="#E30E20" d="M365.154,409.148c-6.75,23.687-25.979,41.664-46.046,56.009c-28.474,20.414-60.271,36.179-90.184,54.4
				c-16.89,10.266-33.219,21.354-47.997,34.491c-7.261,6.46-14.204,13.714-18.839,22.157c-1.909,3.384-3.396,6.983-4.377,10.813
				c-5.51,21.193,4.33,41.473,4.33,41.473l0.048,0.083v54.408c-2.073,0.879-4.152,1.814-6.248,2.718
				c-0.625,0.041-1.341,0-2.024-0.083c-1.023-0.175-1.99-0.435-2.932-0.737c-0.6-0.203-1.091-0.514-1.698-0.762
				c-11.584-4.663-20.067-15.14-26.148-26.144c-16.631-30.18-20.354-70.41-6.363-102.268c9.685-21.983,26.443-39.849,45.414-54.45
				c6.702-5.185,13.665-9.93,20.701-14.312c14.941-9.338,30.65-17.492,46.136-25.853v-0.054c6.452-3.467,12.908-6.998,19.229-10.692
				c0.041-0.028,0.083-0.028,0.13-0.107c11.796-6.849,23.25-14.237,33.957-22.763c12.451-9.928,24.861-20.457,30.249-35.469
				c1.813-5.144,2.29-11.62,2.632-17.666v-24.274c0.039,0.141,0.039,0.302,0.039,0.464v-25.443c0.505-0.261,1.911-1.118,3.438-2.087
				c0.047,0,1.486,0.464,2.209,0.721c15.405,5.499,28.987,19.09,37.354,32.896C367.527,372.189,370.161,391.665,365.154,409.148z"/>
			<path fill="#212165" d="M387.772,243.208c-7.181,24.072-23.014,44.964-42.276,61.085c-19.255,16.116-41.887,27.791-65.091,37.394
				c-16.978,6.994-34.462,13.02-51.481,20.06c-15.786,6.452-31.1,13.785-45.112,23.521c-8.611,5.976-16.917,13.26-20.408,23.104
				c-0.6,1.664-1.064,3.358-1.316,5.061c-0.511,2.55-0.675,5.127-0.64,7.83c0.054,2.617,0.559,3.421,0.592,6.27
				c0,0.082,0,0.178,0.048,0.291v61.925c-18.587-3.354-35.39-16.681-44.982-32.976c-11.878-20.254-11.204-48.007-2.804-69.4
				c8.409-21.466,25.592-38.73,44.819-50.91c0.969-0.654,1.944-1.241,2.967-1.826c20.701-12.56,43.932-20.469,66.836-28.486
				l0.047-0.033h0.042c2.29-0.774,4.582-1.605,6.875-2.439c4.151-1.47,8.278-2.96,12.396-4.525
				c22.099-8.349,43.701-18.387,61.443-33.795c21.13-18.406,36.119-47.73,27.493-74.419c-4.234-13.102-15.268-24.954-29.015-26.101
				c-12.354-1.065-23.844,6.285-36.159,7.392c-4.547,0.381-9.724-0.397-12.478-4.038c-3.479-4.703-1.097-11.425,1.657-16.598
				c6.526-12.079,14.804-23.252,24.479-33c8.537-8.579,18.805-16.312,30.766-17.963c13.883-1.864,27.677,4.845,38.158,14.128
				c15.819,14.063,25.759,33.783,31.659,54.157c2.168,7.417,3.806,15.065,4.841,22.743
				C393.493,208.924,392.771,226.557,387.772,243.208z"/>
			<path fill="#FFFFFF" d="M322.048,124.563c-12.262-5.496-18.063,4.308-18.063,4.308c-1.201,1.572-4.187,5.635-4.187,5.635
				c-4.023,4.502-3.348,6.941-3.348,6.941c1.125,2.563,6.873,0.777,6.873,0.777c1.07-0.244,7.659-1.925,7.659-1.925
				c11.781-1.185,14.127-2.684,14.127-2.684c5.497-1.2,5.373-5.619,5.373-5.619C330.421,127.685,322.048,124.563,322.048,124.563z"
				/>
			<path fill="#212165" d="M228.965,223.476c0,6.519-14.959,11.781-33.424,11.781c-18.465,0-33.433-5.263-33.433-11.781
				c0-6.506,14.968-11.768,33.433-11.768C214.006,211.708,228.965,216.97,228.965,223.476z"/>
			<path fill="#212165" d="M315.153,223.476c0,6.519-14.966,11.781-33.418,11.781c-18.465,0-33.439-5.263-33.439-11.781
				c0-6.506,14.974-11.768,33.439-11.768C300.187,211.708,315.153,216.97,315.153,223.476z"/>
			<path fill="#E30E20" d="M389.287,727.675c-0.354-0.626-0.812-1.226-1.22-1.863c-0.213-0.303-0.383-0.589-0.615-0.887
				c-0.524-0.754-1.083-1.475-1.698-2.228c-0.137-0.162-0.238-0.312-0.369-0.472l-0.012,0.049
				c-13.993-16.158-48.285-31.025-70.253-38.102v5.371c-0.512,6.331-15.28,11.47-33.392,11.47c-16.134,0-29.579-4.021-32.778-9.383
				c-3.982,1.491-8.148,3.015-12.471,4.584c-7.424,2.713-14.379,5.251-20.913,7.64l1.779,0.383
				c22.018,4.794,46.334,9.176,62.89,11.888c18.677,3.466,51.726,9.545,71.583,17.555c0,0,15.887,5.222,23.776,9.462
				c0,0,8.885,4.079,13.502,0.915c0.164-0.124,0.422-0.332,0.75-0.602c0.068-0.069,0.143-0.16,0.226-0.23
				C391.885,741.398,394.701,736.735,389.287,727.675z"/>
			<path fill="#212165" d="M367.446,548.565c-0.73-8.389-5.313-23.762-8.872-31.34c-16.931-36.316-42.657-42.893-43.454-43.096
				v54.575c2.25,19.653,5.468,36.466,0,55.06c-0.035,0.066-0.035,0.215-0.089,0.281c-8.489,28.274-35.601,46.181-61.743,59.896
				c-1.691,0.887-3.354,1.719-5.004,2.575c-29.24,14.784-57.72,24.168-86.196,36.466c-2.073,0.891-4.152,1.814-6.248,2.718
				c-13.226,5.971-26.469,12.671-39.799,21.004c-8.605,5.383-18.239,10.894-24.861,18.667c-0.199,0.231-0.401,0.505-0.606,0.763
				l-0.009-0.025c-0.211,0.273-0.339,0.518-0.544,0.79c-0.178,0.271-0.375,0.56-0.56,0.846c-7.472,11.537-0.375,15.682,1.187,16.406
				c1.936,0.994,4.288,1.351,6.178,1.338c5.263-0.042,11.843-2.974,16.759-4.762c35.348-12.779,60.981-21.968,101.981-36.873
				c6.533-2.389,13.488-4.927,20.913-7.64c4.323-1.569,8.489-3.093,12.471-4.584c27.718-10.361,47.785-19.144,66.17-31.447
				c1.989-1.321,3.907-2.659,5.857-4.075c25.337-18.369,45.452-46.26,47.688-77.475C369.403,568.054,368.49,561.013,367.446,548.565
				z"/>
		</g>
		<g>
			<path fill="#E30E20" d="M576.609,515.794c-29.743,0-52.121-6.957-67.157-20.863c-15.014-13.889-23.231-31.712-24.615-53.407
				h47.961c0.574,9.996,4.891,18.084,12.95,24.191c8.061,6.125,19.324,9.182,33.808,9.182c12.771,0,22.645-2.229,29.606-6.671
				c6.955-4.444,10.44-10.448,10.44-17.943c0-8.336-4.24-14.544-12.724-18.577c-8.495-4.025-18.792-7.321-30.882-9.849
				c-12.096-2.55-24.343-5.113-36.712-7.719c-12.39-2.604-22.815-8.629-31.298-18.079c-8.469-9.442-12.723-22.411-12.723-38.802
				c0-18.899,7.862-34.991,23.593-48.193c15.697-13.202,36.5-19.828,62.363-19.828c14.736,0,27.726,2.32,39.004,6.883
				c11.258,4.588,20.026,10.643,26.285,18.155c6.247,7.511,10.978,15.151,14.189,22.948c3.19,7.79,5.081,15.712,5.632,23.8h-47.572
				c-0.832-8.642-4.522-16.01-11.061-22.159c-6.545-6.071-15.771-9.14-27.739-9.14c-11.959,0-21.145,2.198-27.534,6.613
				c-6.402,4.447-9.601,10.544-9.601,18.358c0,7.226,4.302,12.75,12.901,16.484c8.605,3.77,18.97,6.974,31.06,9.674
				c12.103,2.659,24.344,5.384,36.725,8.125c12.37,2.729,22.753,9.127,31.073,19.161c8.388,10.05,12.574,23.43,12.574,40.064
				c0,19.463-7.862,35.613-23.552,48.389C627.879,509.407,605.534,515.794,576.609,515.794z"/>
			<g>
				<path fill="#212165" d="M1006.15,310.115c-13.624-15.699-33.097-23.579-58.409-23.579c-30.603,0-55.068,11.387-73.423,34.214
					c-13.351-22.827-35.048-34.214-65.079-34.214c-16.16,0-29.618,3.188-40.464,9.582c-10.829,6.385-18.84,14.432-24.111,24.085
					c-0.021,0.041-0.075,0.082-0.089,0.124v-28.801h-45.91h-3.717l0.062,44.239v178.499c0,16.42-7.522,24.619-22.543,24.619
					c-4.445,0-13.152-0.141-16.488-0.439v42.545l23.163,1.285c12.125,0,22.175-2.088,30.95-5.454
					c5.441-2.088,10.187-4.866,14.368-8.213c0.306-0.243,0.613-0.463,0.927-0.735c11.115-9.285,22.925-26.495,22.938-58.804V382.091
					c0-16.402,4.379-29.349,13.133-38.797c8.769-9.438,20.506-14.213,35.236-14.213c27.261,0,40.899,16.407,40.899,49.246v129.759
					h49.653v-124.36c0-17.21,4.377-30.655,13.146-40.254c8.756-9.574,20.66-14.391,35.675-14.391
					c27.248,0,40.885,16.407,40.885,49.246v129.759h49.653V372.065C1026.605,346.498,1019.76,325.826,1006.15,310.115z"/>
			</g>
		</g>
	</g>
</g>
<g id="Capa_2">
</g>
</svg>
